<svg xmlns="http://www.w3.org/2000/svg" xmlns:xlink="http://www.w3.org/1999/xlink" xmlns:lucid="lucid" width="624.69"
     height="482.72">
    <g transform="translate(0 0)" lucid:page-tab-id="0_0">
        <path d="M0 0h624.7v482.72H0z" fill="#fff"/>
        <path d="M91.36 51.36h160v160h-160z" stroke="#000" stroke-width="2" fill="#fff"/>
        <use xlink:href="#a"
             transform="matrix(1,0,0,1,96.35802469135803,56.358024691358025) translate(51.05 78.60000000000001)"/>
        <path d="M62.93 12.36H51.36v118h39v2h-41v-122h13.57zm109.43 39h-2v-39h-10.58v-2h12.58z"/>
        <path/>
        <path d="M90.36 131.36L76.1 136v-9.28z"/>
        <path d="M91.36 130.63v1.45l-16.27 5.3v-12.03zm-14.27 4l10.02-3.27-10.03-3.26z"/>
        <use xlink:href="#b" transform="matrix(1,0,0,1,62.93302469135803,0.5580246913580247) translate(0 14.4)"/>
        <use xlink:href="#c" transform="matrix(1,0,0,1,62.93302469135803,0.5580246913580247) translate(17.95 14.4)"/>
        <use xlink:href="#d" transform="matrix(1,0,0,1,62.93302469135803,0.5580246913580247) translate(81.85 14.4)"/>
        <path d="M411.36 51.36h160v160h-160z" stroke="#000" stroke-width="2" fill="#fff"/>
        <use xlink:href="#e"
             transform="matrix(1,0,0,1,416.358024691358,56.358024691358025) translate(56.05 78.60000000000001)"/>
        <path d="M309.86 103.02h-57.5v-2h57.5zm100.5 0h-57.5v-2h57.5zM411.36 103.02h-1v-2h1z"/>
        <path d="M266.62 106.66l-14.26-4.64 14.26-4.63z"/>
        <path d="M267.62 108.04l-16.26-5.3v-1.44l16.26-5.3zm-12.03-6.02l10.02 3.26v-6.5z"/>
        <use xlink:href="#f" transform="matrix(1,0,0,1,309.858024691358,91.22469135802469) translate(0 14.4)"/>
        <path d="M11.36 351.36h160v120h-160z" stroke="#000" stroke-width="2" fill="#fff"/>
        <use xlink:href="#g" transform="matrix(1,0,0,1,16.358024691358025,356.358024691358) translate(41.525 58.6)"/>
        <path d="M294.9 172.36h-42.54v-2h42.55zm115.46 0H367.8v-2h42.56z"/>
        <path d="M252.36 172.36h-1v-2h1zM410.36 171.36L396.1 176v-9.28z"/>
        <path d="M411.36 170.63v1.45l-16.27 5.3v-12.03zm-14.27 4l10.02-3.27-10.03-3.26z"/>
        <use xlink:href="#h" transform="matrix(1,0,0,1,294.90802469135804,160.558024691358) translate(0 14.4)"/>
        <path d="M492.36 250.36h38.24v2h-40.24v-41h2zm121 2h-27.9v-2h25.9v-119h-39v-2h41z"/>
        <path/>
        <path d="M586.62 135l-14.26-4.64 14.26-4.64z"/>
        <path d="M587.62 136.37l-16.26-5.3v-1.44l16.26-5.28zm-12.03-6l10.02 3.25v-6.52z"/>
        <use xlink:href="#i" transform="matrix(1,0,0,1,530.5996913580246,240.558024691358) translate(0 14.4)"/>
        <path d="M171.36 351.36h160v120h-160z" stroke="#000" stroke-width="2" fill="#fff"/>
        <use xlink:href="#j" transform="matrix(1,0,0,1,176.35802469135803,356.358024691358) translate(58.525 58.6)"/>
        <path d="M172.36 280.36h80v71h-2v-69h-80V255.5h2zm0-46.47h-2v-22.54h2z"/>
        <path/>
        <path d="M251.36 351.36l-4.64-14.27H256z"/>
        <path d="M252.4 351.36h-2.1l-4.95-15.27h12.02zm-4.3-13.27l3.26 10.02 3.26-10.03zM172.36 282.36h-80v69h-2v-71h80V255.5h2zm0-48.47h-2v-22.54h2z"/>
        <path/>
        <path d="M91.36 351.36l-4.64-14.27H96z"/>
        <path d="M92.4 351.36h-2.1l-4.95-15.27h12.02zm-4.3-13.27l3.26 10.02 3.26-10.03z"/>
        <g>
            <use xlink:href="#k" transform="matrix(1,0,0,1,137.88302469135803,233.89135802469133) translate(0 14.4)"/>
        </g>
        <defs>
            <path d="M127-220V0H93v-220H8v-28h204v28h-85" id="l"/>
            <path d="M206 0h-36l-40-164L89 0H53L-1-190h32L70-26l43-164h34l41 164 42-164h31" id="m"/>
            <path d="M100-194c63 0 86 42 84 106H49c0 40 14 67 53 68 26 1 43-12 49-29l28 8c-11 28-37 45-77 45C44 4 14-33 15-96c1-61 26-98 85-98zm52 81c6-60-76-77-97-28-3 7-6 17-6 28h103"
                  id="n"/>
            <path d="M59-47c-2 24 18 29 38 22v24C64 9 27 4 27-40v-127H5v-23h24l9-43h21v43h35v23H59v120" id="o"/>
            <g id="a">
                <use transform="matrix(0.05,0,0,0.05,0,0)" xlink:href="#l"/>
                <use transform="matrix(0.05,0,0,0.05,9.950000000000001,0)" xlink:href="#m"/>
                <use transform="matrix(0.05,0,0,0.05,22.900000000000002,0)" xlink:href="#n"/>
                <use transform="matrix(0.05,0,0,0.05,32.900000000000006,0)" xlink:href="#n"/>
                <use transform="matrix(0.05,0,0,0.05,42.900000000000006,0)" xlink:href="#o"/>
            </g>
            <path d="M24-231v-30h32v30H24zM24 0v-190h32V0H24" id="p"/>
            <path d="M135-143c-3-34-86-38-87 0 15 53 115 12 119 90S17 21 10-45l28-5c4 36 97 45 98 0-10-56-113-15-118-90-4-57 82-63 122-42 12 7 21 19 24 35"
                  id="q"/>
            <g id="b">
                <use transform="matrix(0.05,0,0,0.05,0,0)" xlink:href="#p"/>
                <use transform="matrix(0.05,0,0,0.05,3.95,0)" xlink:href="#q"/>
            </g>
            <path d="M114-163C36-179 61-72 57 0H25l-1-190h30c1 12-1 29 2 39 6-27 23-49 58-41v29" id="r"/>
            <g id="c">
                <use transform="matrix(0.05,0,0,0.05,0,0)" xlink:href="#r"/>
                <use transform="matrix(0.05,0,0,0.05,5.95,0)" xlink:href="#n"/>
                <use transform="matrix(0.05,0,0,0.05,15.949999999999998,0)" xlink:href="#o"/>
                <use transform="matrix(0.05,0,0,0.05,20.95,0)" xlink:href="#m"/>
                <use transform="matrix(0.05,0,0,0.05,33.9,0)" xlink:href="#n"/>
                <use transform="matrix(0.05,0,0,0.05,43.9,0)" xlink:href="#n"/>
                <use transform="matrix(0.05,0,0,0.05,53.900000000000006,0)" xlink:href="#o"/>
            </g>
            <path d="M100-194c62-1 85 37 85 99 1 63-27 99-86 99S16-35 15-95c0-66 28-99 85-99zM99-20c44 1 53-31 53-75 0-43-8-75-51-75s-53 32-53 75 10 74 51 75"
                  id="s"/>
            <path d="M101-234c-31-9-42 10-38 44h38v23H63V0H32v-167H5v-23h27c-7-52 17-82 69-68v24" id="t"/>
            <g id="d">
                <use transform="matrix(0.05,0,0,0.05,0,0)" xlink:href="#s"/>
                <use transform="matrix(0.05,0,0,0.05,10,0)" xlink:href="#t"/>
            </g>
            <path d="M232-93c-1 65-40 97-104 97C67 4 28-28 28-90v-158h33c8 89-33 224 67 224 102 0 64-133 71-224h33v155"
                  id="u"/>
            <g id="e">
                <use transform="matrix(0.05,0,0,0.05,0,0)" xlink:href="#u"/>
                <use transform="matrix(0.05,0,0,0.05,12.950000000000001,0)" xlink:href="#q"/>
                <use transform="matrix(0.05,0,0,0.05,21.950000000000003,0)" xlink:href="#n"/>
                <use transform="matrix(0.05,0,0,0.05,31.950000000000003,0)" xlink:href="#r"/>
            </g>
            <path d="M115-194c55 1 70 41 70 98S169 2 115 4C84 4 66-9 55-30l1 105H24l-1-265h31l2 30c10-21 28-34 59-34zm-8 174c40 0 45-34 45-75s-6-73-45-74c-42 0-51 32-51 76 0 43 10 73 51 73"
                  id="v"/>
            <g id="f">
                <use transform="matrix(0.05,0,0,0.05,0,0)" xlink:href="#v"/>
                <use transform="matrix(0.05,0,0,0.05,10,0)" xlink:href="#s"/>
                <use transform="matrix(0.05,0,0,0.05,20,0)" xlink:href="#q"/>
                <use transform="matrix(0.05,0,0,0.05,29,0)" xlink:href="#o"/>
                <use transform="matrix(0.05,0,0,0.05,34,0)" xlink:href="#q"/>
            </g>
            <path d="M197 0v-115H63V0H30v-248h33v105h134v-105h34V0h-34" id="w"/>
            <path d="M141-36C126-15 110 5 73 4 37 3 15-17 15-53c-1-64 63-63 125-63 3-35-9-54-41-54-24 1-41 7-42 31l-33-3c5-37 33-52 76-52 45 0 72 20 72 64v82c-1 20 7 32 28 27v20c-31 9-61-2-59-35zM48-53c0 20 12 33 32 33 41-3 63-29 60-74-43 2-92-5-92 41"
                  id="x"/>
            <path d="M106-169C34-169 62-67 57 0H25v-261h32l-1 103c12-21 28-36 61-36 89 0 53 116 60 194h-32v-121c2-32-8-49-39-48"
                  id="y"/>
            <path d="M177-190C167-65 218 103 67 71c-23-6-38-20-44-43l32-5c15 47 100 32 89-28v-30C133-14 115 1 83 1 29 1 15-40 15-95c0-56 16-97 71-98 29-1 48 16 59 35 1-10 0-23 2-32h30zM94-22c36 0 50-32 50-73 0-42-14-75-50-75-39 0-46 34-46 75s6 73 46 73"
                  id="z"/>
            <g id="g">
                <use transform="matrix(0.05,0,0,0.05,0,0)" xlink:href="#w"/>
                <use transform="matrix(0.05,0,0,0.05,12.950000000000001,0)" xlink:href="#x"/>
                <use transform="matrix(0.05,0,0,0.05,22.950000000000003,0)" xlink:href="#q"/>
                <use transform="matrix(0.05,0,0,0.05,31.950000000000003,0)" xlink:href="#y"/>
                <use transform="matrix(0.05,0,0,0.05,41.95,0)" xlink:href="#o"/>
                <use transform="matrix(0.05,0,0,0.05,46.95,0)" xlink:href="#x"/>
                <use transform="matrix(0.05,0,0,0.05,56.95,0)" xlink:href="#z"/>
            </g>
            <path d="M210-169c-67 3-38 105-44 169h-31v-121c0-29-5-50-35-48C34-165 62-65 56 0H25l-1-190h30c1 10-1 24 2 32 10-44 99-50 107 0 11-21 27-35 58-36 85-2 47 119 55 194h-31v-121c0-29-5-49-35-48"
                  id="A"/>
            <path d="M117-194c89-4 53 116 60 194h-32v-121c0-31-8-49-39-48C34-167 62-67 57 0H25l-1-190h30c1 10-1 24 2 32 11-22 29-35 61-36"
                  id="B"/>
            <g id="h">
                <use transform="matrix(0.05,0,0,0.05,0,0)" xlink:href="#A"/>
                <use transform="matrix(0.05,0,0,0.05,14.950000000000001,0)" xlink:href="#n"/>
                <use transform="matrix(0.05,0,0,0.05,24.950000000000003,0)" xlink:href="#B"/>
                <use transform="matrix(0.05,0,0,0.05,34.95,0)" xlink:href="#o"/>
                <use transform="matrix(0.05,0,0,0.05,39.95,0)" xlink:href="#p"/>
                <use transform="matrix(0.05,0,0,0.05,43.900000000000006,0)" xlink:href="#s"/>
                <use transform="matrix(0.05,0,0,0.05,53.900000000000006,0)" xlink:href="#B"/>
                <use transform="matrix(0.05,0,0,0.05,63.900000000000006,0)" xlink:href="#q"/>
            </g>
            <path d="M24 0v-261h32V0H24" id="C"/>
            <g id="i">
                <use transform="matrix(0.05,0,0,0.05,0,0)" xlink:href="#t"/>
                <use transform="matrix(0.05,0,0,0.05,5,0)" xlink:href="#s"/>
                <use transform="matrix(0.05,0,0,0.05,15,0)" xlink:href="#C"/>
                <use transform="matrix(0.05,0,0,0.05,18.95,0)" xlink:href="#C"/>
                <use transform="matrix(0.05,0,0,0.05,22.9,0)" xlink:href="#s"/>
                <use transform="matrix(0.05,0,0,0.05,32.9,0)" xlink:href="#m"/>
                <use transform="matrix(0.05,0,0,0.05,45.85,0)" xlink:href="#q"/>
            </g>
            <path d="M30 0v-248h33v221h125V0H30" id="D"/>
            <path d="M143 0L79-87 56-68V0H24v-261h32v163l83-92h37l-77 82L181 0h-38" id="E"/>
            <g id="j">
                <use transform="matrix(0.05,0,0,0.05,0,0)" xlink:href="#D"/>
                <use transform="matrix(0.05,0,0,0.05,10,0)" xlink:href="#p"/>
                <use transform="matrix(0.05,0,0,0.05,13.949999999999998,0)" xlink:href="#B"/>
                <use transform="matrix(0.05,0,0,0.05,23.95,0)" xlink:href="#E"/>
            </g>
            <path d="M96-169c-40 0-48 33-48 73s9 75 48 75c24 0 41-14 43-38l32 2c-6 37-31 61-74 61-59 0-76-41-82-99-10-93 101-131 147-64 4 7 5 14 7 22l-32 3c-4-21-16-35-41-35"
                  id="F"/>
            <g id="k">
                <use transform="matrix(0.05,0,0,0.05,0,0)" xlink:href="#F"/>
                <use transform="matrix(0.05,0,0,0.05,9,0)" xlink:href="#s"/>
                <use transform="matrix(0.05,0,0,0.05,19,0)" xlink:href="#B"/>
                <use transform="matrix(0.05,0,0,0.05,29,0)" xlink:href="#o"/>
                <use transform="matrix(0.05,0,0,0.05,34,0)" xlink:href="#x"/>
                <use transform="matrix(0.05,0,0,0.05,44,0)" xlink:href="#p"/>
                <use transform="matrix(0.05,0,0,0.05,47.95,0)" xlink:href="#B"/>
                <use transform="matrix(0.05,0,0,0.05,57.95,0)" xlink:href="#q"/>
            </g>
        </defs>
    </g>
</svg>